<?xml version="1.0" encoding="UTF-8" standalone="no"?>
<!DOCTYPE svg PUBLIC "-//W3C//DTD SVG 1.1//EN" "http://www.w3.org/Graphics/SVG/1.1/DTD/svg11.dtd">
<!-- Generated by Microsoft Visio, SVG Export architecture.svg Page-1 -->
<svg xmlns="http://www.w3.org/2000/svg" xmlns:xlink="http://www.w3.org/1999/xlink" xmlns:ev="http://www.w3.org/2001/xml-events"
		xmlns:v="http://schemas.microsoft.com/visio/2003/SVGExtensions/" width="11.0243in" height="4.64994in"
		viewBox="0 0 793.75 334.795" xml:space="preserve" color-interpolation-filters="sRGB" class="st28">
	<v:documentProperties v:langID="1033" v:viewMarkup="false">
		<v:userDefs>
			<v:ud v:nameU="msvSubprocessMaster" v:prompt="" v:val="VT4(Rectangle)"/>
			<v:ud v:nameU="msvNoAutoConnect" v:val="VT0(1):26"/>
		</v:userDefs>
	</v:documentProperties>

	<style type="text/css">
	<![CDATA[
		.st1 {fill:#b3b3b3;stroke:none;stroke-linecap:butt;stroke-width:0.999999}
		.st2 {fill:#ff2a2a;stroke:none;stroke-linecap:butt;stroke-width:1}
		.st3 {fill:#ff6600;stroke:none;stroke-linecap:butt;stroke-width:1}
		.st4 {fill:none;stroke:none;stroke-linecap:butt;stroke-width:0.75}
		.st5 {fill:#2e75b5;font-family:Segoe UI;font-size:0.833336em;font-weight:bold}
		.st6 {fill:#ffffff;stroke:none;stroke-linecap:butt;stroke-width:0.75}
		.st7 {fill:#949494;stroke:none;stroke-linecap:butt;stroke-width:0.75}
		.st8 {fill:url(#grad0-43);stroke:none;stroke-linecap:butt;stroke-width:0.75}
		.st9 {fill:#50e6ff;stroke:none;stroke-linecap:butt;stroke-width:0.75}
		.st10 {fill:#1490df;stroke:none;stroke-linecap:butt;stroke-width:0.75}
		.st11 {fill:url(#grad0-62);stroke:none;stroke-linecap:butt;stroke-width:0.75}
		.st12 {fill:#76bc2d;stroke:none;stroke-linecap:butt;stroke-width:0.75}
		.st13 {fill:#86d633;stroke:none;stroke-linecap:butt;stroke-width:0.75}
		.st14 {fill:#999999;stroke:none;stroke-linecap:butt;stroke-width:0.75}
		.st15 {fill:#999999;fill-opacity:0.5;stroke:none;stroke-linecap:butt;stroke-width:0.75}
		.st16 {fill:#989898;stroke:none;stroke-linecap:butt;stroke-width:0.75}
		.st17 {fill:#32bedd;stroke:none;stroke-linecap:butt;stroke-width:0.75}
		.st18 {fill:#198ab3;stroke:none;stroke-linecap:butt;stroke-width:0.75}
		.st19 {fill:url(#grad0-143);stroke:none;stroke-linecap:butt;stroke-width:0.75}
		.st20 {font-size:1em}
		.st21 {marker-end:url(#mrkr4-154);stroke:#4672c4;stroke-linecap:round;stroke-linejoin:round;stroke-width:1}
		.st22 {fill:#4672c4;fill-opacity:1;stroke:#4672c4;stroke-opacity:1;stroke-width:0.28409090909091}
		.st23 {fill:#ffffff;stroke:none;stroke-linecap:butt;stroke-width:7.2}
		.st24 {fill:#3c63ac;font-family:Segoe UI;font-size:0.666664em}
		.st25 {fill:url(#grad0-177);stroke:none;stroke-linecap:butt;stroke-width:0.75}
		.st26 {fill:#37c2b1;stroke:none;stroke-linecap:butt;stroke-width:0.75}
		.st27 {fill:#258277;stroke:none;stroke-linecap:butt;stroke-width:0.75}
		.st28 {fill:none;fill-rule:evenodd;font-size:12px;overflow:visible;stroke-linecap:square;stroke-miterlimit:3}
	]]>
	</style>

	<defs id="Patterns_And_Gradients">
		<linearGradient id="grad0-43" x1="0" y1="0" x2="1" y2="0" gradientTransform="rotate(-90.596448209816 0.5 0.5)">
			<stop offset="0" stop-color="#198ab3" stop-opacity="1"/>
			<stop offset="0" stop-color="#198ab3" stop-opacity="1"/>
			<stop offset="0.09" stop-color="#22a5cb" stop-opacity="1"/>
			<stop offset="0.19" stop-color="#29bade" stop-opacity="1"/>
			<stop offset="0.29" stop-color="#2ec9eb" stop-opacity="1"/>
			<stop offset="0.42" stop-color="#31d1f3" stop-opacity="1"/>
			<stop offset="0.62" stop-color="#32d4f5" stop-opacity="1"/>
		</linearGradient>
		<linearGradient id="grad0-62" x1="0" y1="0" x2="1" y2="0" gradientTransform="rotate(-90 0.5 0.5)">
			<stop offset="0" stop-color="#fea11b" stop-opacity="1"/>
			<stop offset="0.285" stop-color="#fea51a" stop-opacity="1"/>
			<stop offset="0.545" stop-color="#feb018" stop-opacity="1"/>
			<stop offset="0.8" stop-color="#ffc314" stop-opacity="1"/>
			<stop offset="1" stop-color="#ffd70f" stop-opacity="1"/>
		</linearGradient>
		<linearGradient id="grad0-143" x1="0" y1="0" x2="1" y2="0" gradientTransform="rotate(-90 0.5 0.5)">
			<stop offset="0" stop-color="#b3b2b3" stop-opacity="1"/>
			<stop offset="0.31" stop-color="#9e9e9e" stop-opacity="1"/>
			<stop offset="0.54" stop-color="#949494" stop-opacity="1"/>
		</linearGradient>
		<linearGradient id="grad0-177" x1="0" y1="0" x2="1" y2="0" gradientTransform="rotate(-90 0.5 0.5)">
			<stop offset="0" stop-color="#b3b3b3" stop-opacity="1"/>
			<stop offset="0.26" stop-color="#c1c1c1" stop-opacity="1"/>
			<stop offset="1" stop-color="#e6e6e6" stop-opacity="1"/>
		</linearGradient>
	</defs>
	<defs id="Markers">
		<g id="lend4">
			<path d="M 2 1 L 0 0 L 2 -1 L 2 1 " style="stroke:none"/>
		</g>
		<marker id="mrkr4-154" class="st22" v:arrowType="4" v:arrowSize="2" v:setback="7.04" refX="-7.04" orient="auto"
				markerUnits="strokeWidth" overflow="visible">
			<use xlink:href="#lend4" transform="scale(-3.52,-3.52) "/>
		</marker>
	</defs>
	<g v:mID="0" v:index="1" v:groupContext="foregroundPage">
		<v:userDefs>
			<v:ud v:nameU="msvThemeOrder" v:val="VT0(0):26"/>
		</v:userDefs>
		<title>Page-1</title>
		<v:pageProperties v:drawingScale="1" v:pageScale="1" v:drawingUnits="0" v:shadowOffsetX="9" v:shadowOffsetY="-9"/>
		<v:layer v:name="Connector" v:index="0"/>
		<g id="group123-1" transform="translate(19,-219.148)" v:mID="123" v:groupContext="group">
			<title>Sheet.123</title>
			<g id="group113-2" transform="translate(0,-24.75)" v:mID="113" v:groupContext="group">
				<title>Sheet.113</title>
				<g id="group114-3" v:mID="114" v:groupContext="group">
					<title>g1188</title>
					<g id="shape115-4" v:mID="115" v:groupContext="shape">
						<title>path1100</title>
						<path d="M75.6 297.83 L26.57 297.83 L26.57 281.83 C28.54 281.15 30.07 279.58 30.68 277.61 C31.3 275.64 30.93
									 273.49 29.7 271.83 C28.46 270.17 26.5 269.19 24.41 269.19 C22.32 269.19 20.36 270.17 19.12 271.83
									 C17.88 273.49 17.51 275.64 18.13 277.61 C18.75 279.58 20.28 281.15 22.25 281.83 L22.25 297.83
									 L10.8 297.83 C7.95 297.82 5.21 298.92 3.19 300.9 C1.16 302.89 0.01 305.59 0 308.4 L0 316.17
									 C0.01 318.21 0.61 320.19 1.72 321.9 C2.83 323.61 4.4 324.98 6.26 325.84 L6.26 332.65 C6.25 333.21
									 6.46 333.74 6.84 334.15 C7.23 334.55 7.76 334.78 8.32 334.8 L8.36 334.8 L78.04 334.8 C78.6 334.79
									 79.13 334.57 79.53 334.18 C79.92 333.78 80.14 333.25 80.14 332.7 L80.14 332.65 L80.14 325.84
									 C82 324.98 83.57 323.61 84.68 321.9 C85.79 320.19 86.39 318.21 86.4 316.17 L86.4 308.44 C86.39
									 305.62 85.26 302.91 83.24 300.93 C81.22 298.94 78.48 297.82 75.63 297.83 L75.6 297.83 ZM24.45
									 273.43 C25.37 273.43 26.2 273.98 26.55 274.82 C26.9 275.65 26.7 276.62 26.05 277.26 C25.41 277.9
									 24.43 278.09 23.58 277.75 C22.74 277.4 22.18 276.58 22.18 275.67 C22.18 274.44 23.2 273.43 24.45
									 273.43 L24.45 273.43 ZM75.81 330.52 L10.58 330.52 L10.58 326.85 C10.65 326.88 10.73 326.89 10.8
									 326.89 L75.6 326.89 C75.67 326.89 75.74 326.88 75.81 326.85 L75.81 330.52 ZM82.08 316.21 C82.08
									 317.91 81.4 319.54 80.18 320.74 C78.96 321.94 77.32 322.62 75.6 322.62 L10.8 322.62 C9.08 322.62
									 7.43 321.94 6.22 320.74 C5 319.54 4.32 317.91 4.32 316.21 L4.32 308.51 C4.32 306.81 5 305.18
									 6.22 303.98 C7.43 302.78 9.08 302.1 10.8 302.1 L75.6 302.1 C77.32 302.1 78.96 302.78 80.18 303.98
									 C81.4 305.18 82.08 306.81 82.08 308.51 L82.08 316.21 Z" class="st1"/>
					</g>
					<g id="shape116-6" v:mID="116" v:groupContext="shape" transform="translate(33.3974,-51.2019)">
						<title>path1102</title>
						<path d="M0.86 330.94 C0.84 330.95 0.83 330.97 0.82 330.98 C0 331.83 0.03 333.17 0.88 333.98 C1.73 334.8
									 3.08 334.79 3.91 333.96 L3.92 333.96 L3.92 333.96 C5.94 331.95 7.07 329.24 7.07 326.41 C7.07
									 323.58 5.93 320.86 3.91 318.86 C3.07 318.02 1.7 318.02 0.85 318.85 C0.01 319.68 0 321.03 0.84
									 321.87 L0.85 321.88 L0.85 321.88 C2.07 323.08 2.75 324.71 2.75 326.41 C2.75 328.11 2.07 329.73
									 0.86 330.94 L0.86 330.94 Z" class="st2"/>
					</g>
					<g id="shape117-8" v:mID="117" v:groupContext="shape" transform="translate(39.6154,-47.1854)">
						<title>path1104</title>
						<path d="M0.84 330.94 C0 331.77 0 333.13 0.84 333.96 C1.69 334.8 3.06 334.8 3.9 333.96 C7 330.89 8.74 326.73
									 8.74 322.39 C8.74 318.05 7 313.89 3.9 310.82 C3.06 309.98 1.69 309.98 0.84 310.81 C0 311.65
									 0 313 0.84 313.84 C3.13 316.11 4.42 319.18 4.42 322.39 C4.42 325.59 3.13 328.67 0.84 330.94
									 L0.84 330.94 Z" class="st2"/>
					</g>
					<g id="shape118-10" v:mID="118" v:groupContext="shape" transform="translate(8.43097,-51.2117)">
						<title>path1106</title>
						<path d="M3.17 333.96 C4.01 334.8 5.38 334.79 6.22 333.96 C7.07 333.12 7.06 331.77 6.22 330.94 C5.01 329.74
									 4.32 328.11 4.32 326.41 C4.32 324.71 5 323.09 6.22 321.88 C7.05 321.06 7.06 319.72 6.24 318.88
									 C5.41 318.04 4.06 318.01 3.2 318.82 C3.19 318.83 3.17 318.85 3.16 318.86 L3.16 318.86 C1.14
									 320.87 0 323.58 0 326.42 C0 329.25 1.14 331.96 3.17 333.96 L3.17 333.96 Z" class="st2"/>
					</g>
					<g id="shape119-12" v:mID="119" v:groupContext="shape" transform="translate(0.555283,-47.3919)">
						<title>path1108</title>
						<path d="M6.36 334.8 C7.24 334.8 8.02 334.27 8.36 333.48 C8.69 332.68 8.51 331.76 7.89 331.15 C5.6 328.88
									 4.32 325.8 4.32 322.6 C4.32 319.39 5.6 316.32 7.89 314.05 C8.73 313.21 8.73 311.86 7.89 311.02
									 C7.05 310.19 5.68 310.19 4.84 311.02 C1.74 314.1 0 318.26 0 322.6 C0 326.93 1.74 331.1 4.84
									 334.17 C5.24 334.57 5.79 334.8 6.36 334.79 L6.36 334.8 Z" class="st2"/>
					</g>
					<g id="shape120-14" v:mID="120" v:groupContext="shape" transform="translate(11.064,-16.7418)">
						<title>path1110</title>
						<path d="M5.96 323.01 C4.38 323.01 2.86 323.63 1.74 324.74 C0.63 325.84 0 327.34 0 328.9 C0 330.47 0.63 331.97
									 1.74 333.07 C2.86 334.17 4.38 334.8 5.96 334.8 C7.54 334.8 9.05 334.17 10.17 333.07 C11.28 331.96
									 11.91 330.47 11.91 328.9 C11.91 327.34 11.28 325.84 10.16 324.74 C9.05 323.64 7.53 323.01 5.96
									 323.01 L5.96 323.01 ZM5.96 330.52 C5.29 330.52 4.7 330.13 4.44 329.52 C4.19 328.92 4.33 328.22
									 4.8 327.76 C5.27 327.3 5.97 327.16 6.58 327.41 C7.19 327.66 7.59 328.25 7.59 328.9 C7.59 329.8
									 6.86 330.52 5.96 330.52 L5.96 330.52 Z" class="st3"/>
					</g>
					<g id="shape121-16" v:mID="121" v:groupContext="shape" transform="translate(25.5553,-16.7418)">
						<title>path1112</title>
						<path d="M5.96 323.01 C4.38 323.01 2.86 323.63 1.74 324.74 C0.63 325.84 0 327.34 0 328.9 C0 330.47 0.63 331.97
									 1.74 333.07 C2.86 334.17 4.38 334.8 5.96 334.8 C7.53 334.8 9.05 334.17 10.17 333.07 C11.28 331.96
									 11.91 330.47 11.91 328.9 C11.91 327.34 11.28 325.84 10.16 324.74 C9.05 323.64 7.53 323.01 5.96
									 323.01 L5.96 323.01 ZM5.96 330.52 C5.29 330.52 4.7 330.13 4.44 329.52 C4.19 328.92 4.33 328.22
									 4.8 327.76 C5.27 327.3 5.97 327.16 6.58 327.41 C7.19 327.66 7.59 328.25 7.59 328.9 C7.59 329.8
									 6.86 330.52 5.96 330.52 L5.96 330.52 Z" class="st3"/>
					</g>
				</g>
			</g>
			<g id="shape122-18" v:mID="122" v:groupContext="shape" transform="translate(7.2,0)">
				<title>Icon-compute-29.122</title>
				<desc>IoT device</desc>
				<v:textBlock v:margins="rect(0,0,0,0)"/>
				<v:textRect cx="36" cy="326.92" width="72" height="15.75"/>
				<rect x="0" y="319.045" width="72" height="15.75" class="st4"/>
				<text x="12.01" y="329.92" class="st5" v:langID="1033"><v:paragraph v:horizAlign="1"/><v:tabList/>IoT device</text>			</g>
		</g>
		<g id="group124-21" transform="translate(250.6,-219.148)" v:mID="124" v:groupContext="group">
			<title>Sheet.124</title>
			<g id="group69-22" transform="translate(0,-24.8977)" v:mID="69" v:groupContext="group">
				<title>Sheet.69</title>
				<g id="shape70-23" v:mID="70" v:groupContext="shape" transform="translate(37.8148,-30.0035)">
					<title>fa3a22e9-e4e8-46a1-bc09-f953274</title>
					<ellipse cx="8.31418" cy="326.447" rx="8.31418" ry="8.34844" class="st6"/>
				</g>
				<g id="shape71-25" v:mID="71" v:groupContext="shape" transform="translate(53.5147,-6.94997)">
					<title>eb214416-6791-4934-ac0c-35afaa8</title>
					<ellipse cx="6.54162" cy="328.227" rx="6.54162" ry="6.56857" class="st6"/>
				</g>
				<g id="shape72-27" v:mID="72" v:groupContext="shape" transform="translate(28.5721,-12.3743)">
					<title>a4424413-b91f-48da-aedd-39e3a97</title>
					<ellipse cx="5.61313" cy="329.159" rx="5.61313" ry="5.63626" class="st6"/>
				</g>
				<g id="shape73-29" v:mID="73" v:groupContext="shape" transform="translate(23.17,-53.947)">
					<title>f7ecfc1a-3268-471b-9464-57023bf</title>
					<ellipse cx="6.96366" cy="327.803" rx="6.96366" ry="6.99235" class="st6"/>
				</g>
				<g id="shape74-31" v:mID="74" v:groupContext="shape" transform="translate(5.86635,-29.5374)">
					<title>b4388938-ad80-41b4-b729-5c21e3e</title>
					<ellipse cx="5.61313" cy="329.159" rx="5.61313" ry="5.63626" class="st6"/>
				</g>
				<g id="shape75-33" v:mID="75" v:groupContext="shape" transform="translate(11.3107,-13.0524)">
					<title>polygon1472</title>
					<path d="M34.82 309.11 L35.96 308.27 L20.05 285.55 L17.13 287.67 L31.23 307.8 L0 310.39 L0.3 314.03 L31.23 311.45
								 L20.98 328.57 L24.06 330.43 L34.61 312.8 L47.14 334.8 L50.26 333.02 L36.21 308.31 L34.82 309.11
								 Z" class="st7"/>
				</g>
				<g id="group76-35" v:mID="76" v:groupContext="group">
					<title>g1478</title>
					<g id="shape77-36" v:mID="77" v:groupContext="shape" transform="translate(51.3622,-51.6586)">
						<title>path1474</title>
						<path d="M20.64 317.55 A3.08089 3.09358 -180 0 0 17.56 314.45 L1.52 314.45 A1.51934 1.5256 -180 0 0 -0 315.98
									 L0 321.95 A1.51934 1.5256 -180 0 0 1.52 323.48 L11.44 323.48 L11.44 333.23 A1.60375 1.61036
									 -180 0 0 13 334.8 L18.91 334.8 A1.60375 1.61036 -180 0 0 20.47 333.23 L20.47 317.55 L20.64 317.55
									 Z" class="st7"/>
					</g>
					<g id="shape78-38" v:mID="78" v:groupContext="shape">
						<title>path1476</title>
						<path d="M19.12 325.81 L9.03 325.81 L9.03 316.06 A1.60375 1.61036 -180 0 0 7.47 314.5 L1.56 314.5 A1.60375
									 1.61036 -180 0 0 -0 316.06 L0 331.74 A3.08089 3.09358 -180 0 0 3.08 334.8 L19.12 334.8 A1.51934
									 1.5256 -180 0 0 20.64 333.27 L20.64 327.34 A1.51934 1.5256 -180 0 0 19.12 325.81 Z"
								class="st7"/>
					</g>
				</g>
				<g id="shape79-40" v:mID="79" v:groupContext="shape" transform="translate(5.86635,-8.81648)">
					<title>path1480</title>
					<path d="M40.26 297 A8.4408 8.47557 0 1 1 31.82 305.26 A8.4408 8.47557 0 0 1 40.26 297 ZM17.47 282.67 A7.00586
								 7.03473 -180 1 0 24.31 275.68 A6.96366 6.99235 -180 0 0 17.47 282.67 ZM0 308.4 A5.61313 5.63626
								 -180 1 0 5.61 302.76 A5.61313 5.63626 -180 0 0 0 308.4 ZM22.71 325.56 A5.65533 5.67863 -180 1 0
								 28.36 319.92 A5.61313 5.63626 -180 0 0 22.71 325.56 ZM47.69 330.09 A6.54162 6.56857 -180 1 0 54.23
								 323.57 A6.45721 6.48381 -180 0 0 47.69 330.09 Z" class="st8"/>
				</g>
			</g>
			<g id="shape89-44" v:mID="89" v:groupContext="shape" transform="translate(3.21865E-06,0)">
				<title>Icon-compute-29.89</title>
				<desc>IoT Hub</desc>
				<v:textBlock v:margins="rect(0,0,0,0)"/>
				<v:textRect cx="36" cy="326.92" width="72" height="15.75"/>
				<rect x="0" y="319.045" width="72" height="15.75" class="st4"/>
				<text x="17.09" y="329.92" class="st5" v:langID="1033"><v:paragraph v:horizAlign="1"/><v:tabList/>IoT Hub</text>			</g>
		</g>
		<g id="group125-47" transform="translate(467.8,-219)" v:mID="125" v:groupContext="group">
			<title>Sheet.125</title>
			<g id="group80-48" transform="translate(0,-24.75)" v:mID="80" v:groupContext="group">
				<title>Icon-compute-29.28</title>
				<g id="group81-49" transform="translate(0,-15.0757)" v:mID="81" v:groupContext="group">
					<title>g875</title>
					<g id="shape82-50" v:mID="82" v:groupContext="shape" transform="translate(241.359,545.193) rotate(134.919)">
						<title>path871</title>
						<path d="M1.19 304.04 L4.86 304.04 A1.18025 1.182 0 0 1 6.04 305.22 L6.04 332.44 A2.35609 2.35957 0 0 1 3.69
									 334.8 L0 334.8 L0 305.21 A1.18025 1.182 0 0 1 1.18 304.03 L1.19 304.04 Z" class="st9"/>
					</g>
					<g id="shape83-52" v:mID="83" v:groupContext="shape" transform="translate(236.385,75.9665) rotate(44.919)">
						<title>path873</title>
						<path d="M1.18 304.47 L4.86 304.47 A1.18025 1.182 0 0 1 6.04 305.65 L6.04 334.8 L2.36 334.8 A2.35609 2.35957
									 0 0 1 0 332.44 L0 305.64 A1.18025 1.182 0 0 1 1.18 304.47 Z" class="st10"/>
					</g>
				</g>
				<g id="group84-54" transform="translate(54.9558,-15.0639)" v:mID="84" v:groupContext="group">
					<title>g881</title>
					<g id="shape85-55" v:mID="85" v:groupContext="shape" transform="translate(237.054,94.1153) rotate(45.081)">
						<title>path877</title>
						<path d="M0 304.04 L3.68 304.04 A2.35609 2.35957 0 0 1 6.04 306.4 L6.04 333.61 A1.18025 1.182 0 0 1 4.86
									 334.8 L1.19 334.8 A1.18025 1.182 0 0 1 0.01 333.61 L0.01 304.04 L0 304.04 Z" class="st9"/>
					</g>
					<g id="shape86-57" v:mID="86" v:groupContext="shape" transform="translate(241.042,528.608) rotate(135.081)">
						<title>path879</title>
						<path d="M2.36 304.47 L6.04 304.47 L6.04 333.61 A1.18025 1.182 0 0 1 4.86 334.8 L1.18 334.8 A1.18025 1.182
									 0 0 1 0 333.61 L0 306.82 A2.35609 2.35957 0 0 1 2.36 304.46 L2.36 304.47 Z" class="st10"/>
					</g>
				</g>
				<g id="shape87-59" v:mID="87" v:groupContext="shape" transform="translate(21.3618,0)">
					<title>path883</title>
					<path d="M16.75 302.09 L0.88 302.09 a0.853142 0.854402 0 0 1 -0.884085 -0.801279 a0.733791 0.734875 0 0 1 0.0795677
								 -0.332022 L19.1 263.26 a0.910608 0.911953 0 0 1 0.822199 -0.469257 L38.69 262.8 a0.853142 0.854402
								 0 0 1 0.884085 0.801279 a0.72937 0.730448 0 0 1 -0.154715 0.442696 L17.08 293.53 L38.86 293.53 a0.853142
								 0.854402 0 0 1 0.884085 0.801279 a0.777995 0.779144 0 0 1 -0.229862 0.540089 L3.32 332.58 C2.98
								 332.79 0.56 334.8 1.75 331.75 L16.75 302.09 Z" class="st11"/>
				</g>
			</g>
			<g id="shape88-63" v:mID="88" v:groupContext="shape" transform="translate(4.5,0)">
				<title>Icon-compute-29.88</title>
				<desc>Function App</desc>
				<v:textBlock v:margins="rect(0,0,0,0)"/>
				<v:textRect cx="36" cy="326.92" width="72" height="15.75"/>
				<rect x="0" y="319.045" width="72" height="15.75" class="st4"/>
				<text x="4.41" y="329.92" class="st5" v:langID="1033"><v:paragraph v:horizAlign="1"/><v:tabList/>Function App</text>			</g>
		</g>
		<g id="group126-66" transform="translate(694,-207.75)" v:mID="126" v:groupContext="group">
			<title>Sheet.126</title>
			<g id="group46-67" transform="translate(3.19744E-14,-36)" v:mID="46" v:groupContext="group">
				<title>Icon-analytics-144</title>
				<g id="group47-68" v:mID="47" v:groupContext="group">
					<title>a53a4de8-371c-49da-a662-c463129</title>
					<g id="shape48-69" v:mID="48" v:groupContext="shape" transform="translate(36.8312,-37.8547)">
						<title>path1149</title>
						<path d="M12.39 333.51 A1.23882 1.23646 0 0 1 11.24 334.8 L1.29 334.8 A1.23882 1.23646 0 0 1 0 333.65 L0
									 326.24 A1.23882 1.23646 0 0 1 1.14 324.95 L11.1 324.95 A1.23882 1.23646 0 0 1 12.39 326.09 L12.39
									 333.51 Z" class="st12"/>
					</g>
					<g id="shape49-71" v:mID="49" v:groupContext="shape" transform="translate(54.5082,-30.3408)">
						<title>path1151</title>
						<path d="M12.39 333.51 A1.23882 1.23646 0 0 1 11.24 334.8 L1.29 334.8 A1.23882 1.23646 0 0 1 -0 333.65 L0
									 326.28 A1.23882 1.23646 0 0 1 1.14 325 L11.1 325 A1.23882 1.23646 0 0 1 12.39 326.14 L12.39
									 333.51 Z" class="st12"/>
					</g>
					<g id="shape50-73" v:mID="50" v:groupContext="shape" transform="translate(36.8312,-22.7318)">
						<title>path1153</title>
						<path d="M12.39 333.51 A1.23882 1.23646 0 0 1 11.24 334.8 L1.29 334.8 A1.23882 1.23646 0 0 1 0 333.65 L0
									 326.24 A1.23882 1.23646 0 0 1 1.14 324.95 L11.1 324.95 A1.23882 1.23646 0 0 1 12.39 326.09 L12.39
									 333.51 Z" class="st12"/>
					</g>
					<g id="shape51-75" v:mID="51" v:groupContext="shape" transform="translate(18.9159,-45.4161)">
						<title>path1155</title>
						<path d="M12.63 333.56 A1.19118 1.1889 0 0 1 11.53 334.8 L1.29 334.8 A1.23882 1.23646 0 0 1 0 333.7 L0 326
									 A1.23882 1.23646 0 0 1 1.14 324.81 L11.1 324.81 C12.15 324.81 12.63 325.33 12.63 326.09 L12.63
									 333.56 Z" class="st13"/>
					</g>
					<g id="shape52-77" v:mID="52" v:groupContext="shape" transform="translate(18.9159,-30.3408)">
						<title>path1157</title>
						<path d="M12.63 333.51 A1.19118 1.1889 0 0 1 11.53 334.8 L1.29 334.8 A1.23882 1.23646 0 0 1 0 333.51 L0 326
									 A1.23882 1.23646 0 0 1 1.14 324.76 L11.1 324.76 C12.15 324.76 12.63 325.28 12.63 326 L12.63
									 333.51 Z" class="st12"/>
					</g>
					<g id="shape53-79" v:mID="53" v:groupContext="shape" transform="translate(18.9159,-15.1704)">
						<title>path1159</title>
						<path d="M12.63 333.51 A1.19118 1.1889 0 0 1 11.53 334.8 L1.29 334.8 A1.23882 1.23646 0 0 1 0 333.65 L0 325.95
									 A1.19118 1.1889 0 0 1 1.14 324.71 L11.1 324.71 C12.15 324.71 12.63 325.19 12.63 325.95 L12.63
									 333.51 Z" class="st12"/>
					</g>
					<g id="group54-81" transform="translate(8.04357E-14,-53.5007)" v:mID="54" v:groupContext="group">
						<title>g1165</title>
						<g id="shape55-82" v:mID="55" v:groupContext="shape">
							<title>path1161</title>
							<path d="M2.72 316.3 L8.86 316.3 L8.86 333.42 A1.38176 1.37913 0 0 1 7.48 334.8 L1.38 334.8 A1.38176
										 1.37913 0 0 1 -0 333.42 L0 319.15 A2.71588 2.7107 0 0 1 2.72 316.3 Z" class="st14"/>
						</g>
						<g id="shape56-84" v:mID="56" v:groupContext="shape">
							<title>path1163</title>
							<path d="M2.72 316.3 L8.86 316.3 L8.86 333.42 A1.38176 1.37913 0 0 1 7.48 334.8 L1.38 334.8 A1.38176
										 1.37913 0 0 1 -0 333.42 L0 319.15 A2.71588 2.7107 0 0 1 2.72 316.3 Z" class="st15"/>
						</g>
					</g>
					<g id="group57-86" transform="translate(72.09,-53.6433)" v:mID="57" v:groupContext="group">
						<title>g1171</title>
						<g id="shape58-87" v:mID="58" v:groupContext="shape">
							<title>path1167</title>
							<path d="M0.05 316.44 L6.19 316.44 A2.71588 2.7107 0 0 1 8.91 319.15 L8.91 333.42 A1.38176 1.37913 0
										 0 1 7.53 334.8 L1.38 334.8 A1.38176 1.37913 0 0 1 0 333.42 L0 316.44 L0.05 316.44 Z"
									class="st14"/>
						</g>
						<g id="shape59-89" v:mID="59" v:groupContext="shape">
							<title>path1169</title>
							<path d="M0.05 316.44 L6.19 316.44 A2.71588 2.7107 0 0 1 8.91 319.15 L8.91 333.42 A1.38176 1.37913 0
										 0 1 7.53 334.8 L1.38 334.8 A1.38176 1.37913 0 0 1 0 333.42 L0 316.44 L0.05 316.44 Z"
									class="st15"/>
						</g>
					</g>
					<g id="shape60-91" v:mID="60" v:groupContext="shape" transform="translate(334.873,262.787) rotate(90)">
						<title>path1173</title>
						<path d="M2.72 253.95 L8.67 253.95 L8.67 334.8 L2.72 334.8 A2.71588 2.7107 0 0 1 0 332.08 L0 256.61 A2.71588
									 2.7107 0 0 1 2.72 253.95 Z" class="st7"/>
					</g>
					<g id="group61-93" v:mID="61" v:groupContext="group">
						<title>g1179</title>
						<g id="shape62-94" v:mID="62" v:groupContext="shape">
							<title>path1175</title>
							<path d="M1.38 316.3 L7.53 316.3 A1.38176 1.37913 0 0 1 8.91 317.68 L8.91 334.8 L2.72 334.8 A2.71588
										 2.7107 0 0 1 0 332.08 L0 317.44 A1.38176 1.37913 0 0 1 1.38 316.3 Z" class="st14"/>
						</g>
						<g id="shape63-96" v:mID="63" v:groupContext="shape">
							<title>path1177</title>
							<path d="M1.38 316.3 L7.53 316.3 A1.38176 1.37913 0 0 1 8.91 317.68 L8.91 334.8 L2.72 334.8 A2.71588
										 2.7107 0 0 1 0 332.08 L0 317.44 A1.38176 1.37913 0 0 1 1.38 316.3 Z" class="st15"/>
						</g>
					</g>
					<g id="group64-98" transform="translate(72.1376,-0.142668)" v:mID="64" v:groupContext="group">
						<title>g1185</title>
						<g id="shape65-99" v:mID="65" v:groupContext="shape">
							<title>path1181</title>
							<path d="M1.33 316.44 L7.48 316.44 A1.38176 1.37913 0 0 1 8.86 317.82 L8.86 332.08 A2.71588 2.7107 0
										 0 1 6.15 334.8 L0 334.8 L0 317.58 A1.38176 1.37913 0 0 1 1.33 316.44 Z" class="st14"/>
						</g>
						<g id="shape66-101" v:mID="66" v:groupContext="shape">
							<title>path1183</title>
							<path d="M1.33 316.44 L7.48 316.44 A1.38176 1.37913 0 0 1 8.86 317.82 L8.86 332.08 A2.71588 2.7107 0
										 0 1 6.15 334.8 L0 334.8 L0 317.58 A1.38176 1.37913 0 0 1 1.33 316.44 Z" class="st15"/>
						</g>
					</g>
					<g id="shape67-103" v:mID="67" v:groupContext="shape" transform="translate(-253.873,334.804) rotate(-90)">
						<title>path1187</title>
						<path d="M2.72 253.95 L8.67 253.95 L8.67 334.8 L2.72 334.8 A2.71588 2.7107 0 0 1 -0 332.08 L0 256.66 A2.71588
									 2.7107 0 0 1 2.72 253.95 Z" class="st7"/>
					</g>
				</g>
			</g>
			<g id="shape68-105" v:mID="68" v:groupContext="shape" transform="translate(4.5,-11.25)">
				<title>Icon-compute-29.36</title>
				<desc>Event Hub</desc>
				<v:textBlock v:margins="rect(0,0,0,0)"/>
				<v:textRect cx="36" cy="326.92" width="72" height="15.75"/>
				<rect x="0" y="319.045" width="72" height="15.75" class="st4"/>
				<text x="11.62" y="329.92" class="st5" v:langID="1033"><v:paragraph v:horizAlign="1"/><v:tabList/>Event Hub</text>			</g>
		</g>
		<g id="group127-108" transform="translate(250.6,-18.75)" v:mID="127" v:groupContext="group">
			<title>Sheet.127</title>
			<g id="group90-109" transform="translate(3.87635,-45)" v:mID="90" v:groupContext="group">
				<title>Sheet.90</title>
				<g id="group91-110" transform="translate(7.73101,-17.7661)" v:mID="91" v:groupContext="group">
					<title>g1738</title>
					<g id="shape92-111" v:mID="92" v:groupContext="shape" transform="translate(23.0979,-16.2444)">
						<title>circle1728</title>
						<ellipse cx="5.99457" cy="328.915" rx="5.99457" ry="5.8809" class="st6"/>
					</g>
					<g id="shape93-113" v:mID="93" v:groupContext="shape" transform="translate(34.4583,0)">
						<title>circle1730</title>
						<ellipse cx="4.69505" cy="330.189" rx="4.69505" ry="4.60602" class="st6"/>
					</g>
					<g id="shape94-115" v:mID="94" v:groupContext="shape" transform="translate(16.3907,-3.78351)">
						<title>circle1732</title>
						<ellipse cx="4.06625" cy="330.806" rx="4.06625" ry="3.98914" class="st6"/>
					</g>
					<g id="shape95-117" v:mID="95" v:groupContext="shape" transform="translate(12.5341,-33.1057)">
						<title>circle1734</title>
						<ellipse cx="5.03041" cy="329.86" rx="5.03041" ry="4.93502" class="st6"/>
					</g>
					<g id="shape96-119" v:mID="96" v:groupContext="shape" transform="translate(4.39648E-14,-15.9154)">
						<title>circle1736</title>
						<ellipse cx="4.06625" cy="330.806" rx="4.06625" ry="3.98914" class="st6"/>
					</g>
				</g>
				<g id="shape97-121" v:mID="97" v:groupContext="shape" transform="translate(11.7134,-22.0842)">
					<title>path1740</title>
					<path d="M36.26 333.56 L26.12 316.17 L25.11 316.7 L25.95 316.12 L14.46 300.09 L12.37 301.57 L22.55 315.75 L0
								 317.61 L0.21 320.15 L22.55 318.3 L15.13 330.4 L17.35 331.71 L24.98 319.29 L34.04 334.8 L36.3 333.56
								 L36.26 333.56 Z" class="st16"/>
				</g>
				<g id="group98-123" transform="translate(7.73101,-17.7661)" v:mID="98" v:groupContext="group">
					<title>g1752</title>
					<g id="shape99-124" v:mID="99" v:groupContext="shape" transform="translate(23.0979,-16.2444)">
						<title>circle1742</title>
						<ellipse cx="5.95265" cy="328.956" rx="5.95265" ry="5.83977" class="st17"/>
					</g>
					<g id="shape100-126" v:mID="100" v:groupContext="shape" transform="translate(12.5341,-33.1057)">
						<title>circle1744</title>
						<ellipse cx="5.03041" cy="329.86" rx="5.03041" ry="4.93502" class="st17"/>
					</g>
					<g id="shape101-128" v:mID="101" v:groupContext="shape" transform="translate(4.39648E-14,-15.9154)">
						<title>circle1746</title>
						<ellipse cx="4.06625" cy="330.806" rx="4.06625" ry="3.98914" class="st17"/>
					</g>
					<g id="shape102-130" v:mID="102" v:groupContext="shape" transform="translate(16.3907,-3.78351)">
						<title>circle1748</title>
						<ellipse cx="4.06625" cy="330.806" rx="4.06625" ry="3.98914" class="st17"/>
					</g>
					<g id="shape103-132" v:mID="103" v:groupContext="shape" transform="translate(34.4583,0)">
						<title>circle1750</title>
						<ellipse cx="4.69505" cy="330.189" rx="4.69505" ry="4.60602" class="st17"/>
					</g>
				</g>
				<g id="shape104-134" v:mID="104" v:groupContext="shape" transform="translate(51.6213,-51.3242)">
					<title>circle1754</title>
					<ellipse cx="5.95265" cy="328.956" rx="5.95265" ry="5.83977" class="st18"/>
				</g>
				<g id="shape105-136" v:mID="105" v:groupContext="shape" transform="translate(1.82028,-51.3242)">
					<title>circle1756</title>
					<ellipse cx="5.95265" cy="328.956" rx="5.95265" ry="5.83977" class="st18"/>
				</g>
				<g id="shape106-138" v:mID="106" v:groupContext="shape" transform="translate(26.3016,0)">
					<title>circle1758</title>
					<ellipse cx="5.95265" cy="328.956" rx="5.95265" ry="5.83977" class="st18"/>
				</g>
				<g id="shape107-140" v:mID="107" v:groupContext="shape" transform="translate(0,-3.00214)">
					<title>path1760</title>
					<path d="M15.19 277.63 A28.8452 28.2982 0 0 1 49.94 278.12 A8.04027 7.8878 0 0 1 54.14 273.4 A35.3428 34.6726
								 -180 0 0 10.46 273.03 A8.13668 7.98239 0 0 1 15.19 277.63 ZM64.07 285.36 A8.00673 7.8549 0 0 1 58.45
								 288.49 A28.6817 28.1378 0 0 1 61.26 300.83 A29.0087 28.4586 0 0 1 39.38 328.38 A7.84324 7.69451
								 0 0 1 40.39 332.12 A7.39889 7.25859 0 0 1 39.84 334.8 A35.4224 34.7507 -180 0 0 64.03 285.36 L64.07
								 285.36 ZM24.25 331.92 A8.17441 8.0194 0 0 1 25.21 328.22 A28.9626 28.4134 0 0 1 6.1 288.37 A8.38401
								 8.22503 0 0 1 1.9 286.19 A7.0258 6.89257 0 0 1 0.65 284.54 A35.5063 34.833 -180 0 0 24.71 334.71
								 A8.0738 7.9207 0 0 1 24.21 331.92 L24.25 331.92 Z" class="st19"/>
				</g>
			</g>
			<g id="shape108-144" v:mID="108" v:groupContext="shape">
				<title>Icon-compute-29.108</title>
				<desc>Device Provisioning Service</desc>
				<v:textBlock v:margins="rect(0,0,0,0)"/>
				<v:textRect cx="36" cy="316.795" width="72" height="36"/>
				<rect x="0" y="298.795" width="72" height="36" class="st4"/>
				<text x="20.37" y="307.8" class="st5" v:langID="1033"><v:paragraph v:horizAlign="1"/><v:tabList/>Device <tspan
							x="6.51" dy="1.2em" class="st20">Provisioning </tspan><tspan x="19.27" dy="1.2em" class="st20">Service</tspan></text>			</g>
		</g>
		<g id="shape132-149" v:mID="132" v:groupContext="shape" v:layerMember="0" transform="translate(111.25,-270.335)">
			<title>Dynamic connector</title>
			<desc>Telemetry</desc>
			<v:textBlock v:margins="rect(4,4,4,4)"/>
			<v:textRect cx="66.375" cy="325.795" width="45.13" height="17.6036"/>
			<path d="M0 325.8 L125.71 325.8" class="st21"/>
			<rect v:rectContext="textBkgnd" x="48.9085" y="320.996" width="34.9332" height="9.59985" class="st23"/>
			<text x="48.91" y="328.2" class="st24" v:langID="1033"><v:paragraph v:horizAlign="1"/><v:tabList/>Telemetry</text>		</g>
		<g id="shape135-157" v:mID="135" v:groupContext="shape" v:layerMember="0" transform="translate(111.25,-279.335)">
			<title>Dynamic connector.135</title>
			<desc>Provisioning</desc>
			<v:textBlock v:margins="rect(4,4,4,4)"/>
			<v:textRect cx="7.65" cy="483.239" width="53.64" height="17.6036"/>
			<path d="M0 334.8 L7.65 334.8 L7.65 514.23 L125.71 514.23" class="st21"/>
			<rect v:rectContext="textBkgnd" x="-14.0704" y="478.439" width="43.441" height="9.59985" class="st23"/>
			<text x="-14.07" y="485.64" class="st24" v:langID="1033"><v:paragraph v:horizAlign="1"/><v:tabList/>Provisioning</text>		</g>
		<g id="shape142-164" v:mID="142" v:groupContext="shape" v:layerMember="0" transform="translate(556.75,-270.335)">
			<title>Dynamic connector.142</title>
			<desc>Filtered Telemetry</desc>
			<v:textBlock v:margins="rect(4,4,4,4)"/>
			<v:textRect cx="64.125" cy="325.795" width="45.13" height="27.2035"/>
			<path d="M0 325.8 L121.21 325.8" class="st21"/>
			<rect v:rectContext="textBkgnd" x="46.6585" y="316.196" width="34.9332" height="19.1997" class="st23"/>
			<text x="50.95" y="323.4" class="st24" v:langID="1033"><v:paragraph v:horizAlign="1"/><v:tabList/>Filtered<v:newlineChar/><tspan
						x="46.66" dy="1.2em" class="st20">Telemetry</tspan></text>		</g>
		<g id="group151-172" transform="translate(463.3,-29.7329)" v:mID="151" v:groupContext="group">
			<title>Sheet.151</title>
			<g id="group143-173" transform="translate(0,-34.0171)" v:mID="143" v:groupContext="group">
				<title>Icon-storage-86</title>
				<g id="shape144-174" v:mID="144" v:groupContext="shape">
					<title>path2431</title>
					<path d="M0 281.86 L90 281.86 L90 331.79 A3.01765 3.00219 0 0 1 86.98 334.8 L3.02 334.8 A3.01765 3.00219 0 0
								 1 0 331.79 L0 281.86 Z" class="st25"/>
				</g>
				<g id="shape145-178" v:mID="145" v:groupContext="shape" transform="translate(0,-52.9334)">
					<title>path2433</title>
					<path d="M3.02 315.73 L86.98 315.73 A3.01765 3.00219 0 0 1 90 318.73 L90 334.8 L0 334.8 L0 318.68 A3.01765 3.00219
								 0 0 1 3.02 315.73 Z" class="st26"/>
				</g>
				<g id="shape146-180" v:mID="146" v:groupContext="shape" transform="translate(10.8529,-36.9217)">
					<title>path2435</title>
					<path d="M1.38 324.58 L66.86 324.58 A1.42941 1.42209 0 0 1 68.24 326 L68.24 333.37 A1.42941 1.42209 0 0 1 66.86
								 334.8 L1.38 334.8 A1.42941 1.42209 0 0 1 0 333.37 L0 326 A1.42941 1.42209 0 0 1 1.38 324.58 Z"
							class="st6"/>
				</g>
				<g id="shape147-182" v:mID="147" v:groupContext="shape" transform="translate(10.9059,-22.1741)">
					<title>path2437</title>
					<path d="M1.38 324.52 L66.86 324.52 A1.42941 1.42209 0 0 1 68.24 325.95 L68.24 333.37 A1.42941 1.42209 0 0 1
								 66.86 334.8 L1.38 334.8 A1.42941 1.42209 0 0 1 0 333.37 L0 326.21 A1.42941 1.42209 0 0 1 1.38 324.52
								 Z" class="st26"/>
				</g>
				<g id="shape148-184" v:mID="148" v:groupContext="shape" transform="translate(10.9059,-7.32114)">
					<title>path2439</title>
					<path d="M1.38 324.52 L66.86 324.52 A1.42941 1.42209 0 0 1 68.24 325.95 L68.24 333.37 A1.42941 1.42209 0 0 1
								 66.86 334.8 L1.38 334.8 A1.42941 1.42209 0 0 1 0 333.37 L0 325.95 A1.42941 1.42209 0 0 1 1.38 324.52
								 Z" class="st27"/>
				</g>
			</g>
			<g id="shape149-186" v:mID="149" v:groupContext="shape" transform="translate(9,0)">
				<title>Icon-compute-29.88</title>
				<desc>Storage Account</desc>
				<v:textBlock v:margins="rect(0,0,0,0)"/>
				<v:textRect cx="36" cy="322.287" width="72" height="25.0171"/>
				<rect x="0" y="309.778" width="72" height="25.0171" class="st4"/>
				<text x="17.71" y="319.29" class="st5" v:langID="1033"><v:paragraph v:horizAlign="1"/><v:tabList/>Storage <tspan
							x="16.63" dy="1.2em" class="st20">Account</tspan></text>			</g>
		</g>
		<g id="shape155-190" v:mID="155" v:groupContext="shape" v:layerMember="0" transform="translate(499.3,-217.045)">
			<title>Dynamic connector.155</title>
			<desc>Web Job Storage</desc>
			<v:textBlock v:margins="rect(4,4,4,4)"/>
			<v:textRect cx="9" cy="371.639" width="41" height="27.2035"/>
			<path d="M9 334.8 L9 401.44" class="st21"/>
			<rect v:rectContext="textBkgnd" x="-6.39819" y="362.039" width="30.7966" height="19.1997" class="st23"/>
			<text x="-6.4" y="369.24" class="st24" v:langID="1033"><v:paragraph v:horizAlign="1"/><v:tabList/>Web Job<v:newlineChar/><tspan
						x="-4.7" dy="1.2em" class="st20">Storage</tspan></text>		</g>
		<g id="shape156-198" v:mID="156" v:groupContext="shape" v:layerMember="0" transform="translate(329.5,-270.335)">
			<title>Dynamic connector.156</title>
			<desc>Telemetry</desc>
			<v:textBlock v:margins="rect(4,4,4,4)"/>
			<v:textRect cx="65.25" cy="325.795" width="45.13" height="17.6036"/>
			<path d="M0 325.8 L123.46 325.8" class="st21"/>
			<rect v:rectContext="textBkgnd" x="47.7835" y="320.996" width="34.9332" height="9.59985" class="st23"/>
			<text x="47.78" y="328.2" class="st24" v:langID="1033"><v:paragraph v:horizAlign="1"/><v:tabList/>Telemetry</text>		</g>
	</g>
</svg>
